<!-- ENYVORA - Modern eCommerce Catering Logo -->
<!-- Professional Design with Centered Icon -->

<svg xmlns="http://www.w3.org/2000/svg" width="400" height="80" viewBox="0 0 400 80" fill="none">

  <defs>
    <!-- Primary Gradient: Vibrant Orange to Red -->
    <linearGradient id="primaryGradient" x1="0%" y1="0%" x2="100%" y2="100%">
      <stop offset="0%" style="stop-color:#FF6B35;stop-opacity:1" />
      <stop offset="100%" style="stop-color:#E63946;stop-opacity:1" />
    </linearGradient>

    <!-- Accent Gradient -->
    <linearGradient id="accentGradient" x1="0%" y1="0%" x2="100%" y2="100%">
      <stop offset="0%" style="stop-color:#FF8C42;stop-opacity:1" />
      <stop offset="100%" style="stop-color:#FF6B35;stop-opacity:1" />
    </linearGradient>

    <!-- Text Gradient -->
    <linearGradient id="textGradient" x1="0%" y1="0%" x2="100%" y2="0%">
      <stop offset="0%" style="stop-color:#FF6B35;stop-opacity:1" />
      <stop offset="50%" style="stop-color:#E63946;stop-opacity:1" />
      <stop offset="100%" style="stop-color:#D62828;stop-opacity:1" />
    </linearGradient>
  </defs>

  <!-- ICON: Large & Prominent Food Service Symbol - PROPERLY CENTERED -->
  <g id="icon" transform="translate(37.5, 40)">

    <!-- Background circle - centered at origin -->
    <circle cx="0" cy="0" r="32" fill="url(#primaryGradient)" opacity="0.12"/>

    <!-- Main icon: Stylized serving dish/plate - CENTERED AND SCALED -->
    <g transform="scale(1.8) translate(-20, -15)">
      <path d="M 10 15 Q 15 7, 20 9 Q 25 11, 30 15 L 28 23 Q 20 27, 12 23 Z"
            fill="url(#primaryGradient)"/>

      <!-- Accent steam lines suggesting freshness -->
      <path d="M 15 7 Q 16 3, 17 7 M 20 5 Q 21 1, 22 5 M 25 7 Q 26 3, 27 7"
            stroke="url(#accentGradient)"
            stroke-width="2"
            stroke-linecap="round"
            fill="none"/>

      <!-- Base/shadow of dish -->
      <ellipse cx="20" cy="23" rx="9" ry="3.5" fill="url(#accentGradient)" opacity="0.4"/>
    </g>

  </g>

  <!-- WORDMARK: Modern Typography -->
  <text x="90" y="52"
        font-family="'Inter', 'Segoe UI', 'Helvetica Neue', sans-serif"
        font-weight="700"
        font-size="32"
        fill="url(#textGradient)"
        letter-spacing="-0.5">
    ENYVORA
  </text>

</svg>
